<svg id="visual" viewBox="0 0 900 600" width="900" height="600" xmlns="http://www.w3.org/2000/svg" xmlns:xlink="http://www.w3.org/1999/xlink" version="1.1"><g stroke-width="1" stroke-linejoin="bevel"><path d="M403.4 259L433.4 239.7L385.2 225Z" fill="#1e1e1e" stroke="#1e1e1e"></path><path d="M507.6 317.7L466.6 223L433.4 239.7Z" fill="#0a0a0a" stroke="#0a0a0a"></path><path d="M433.4 239.7L466.6 223L385.2 225Z" fill="#000000" stroke="#000000"></path><path d="M385.2 225L385.4 294.3L403.4 259Z" fill="#1e1e1e" stroke="#1e1e1e"></path><path d="M403.4 259L507.6 317.7L433.4 239.7Z" fill="#0a0a0a" stroke="#0a0a0a"></path><path d="M421.2 102.3L343.9 184.3L385.2 225Z" fill="#444444" stroke="#444444"></path><path d="M385.2 225L320.9 303.3L385.4 294.3Z" fill="#3d3d3d" stroke="#3d3d3d"></path><path d="M343.9 184.3L320.9 303.3L385.2 225Z" fill="#191919" stroke="#191919"></path><path d="M425.4 407L507.6 317.7L385.4 294.3Z" fill="#242424" stroke="#242424"></path><path d="M385.4 294.3L507.6 317.7L403.4 259Z" fill="#444444" stroke="#444444"></path><path d="M445.6 90.3L421.2 102.3L466.6 223Z" fill="#444444" stroke="#444444"></path><path d="M466.6 223L421.2 102.3L385.2 225Z" fill="#191919" stroke="#191919"></path><path d="M250.7 333L312.2 325.7L320.9 303.3Z" fill="#131313" stroke="#131313"></path><path d="M320.9 303.3L312.2 325.7L385.4 294.3Z" fill="#303030" stroke="#303030"></path><path d="M421.2 102.3L361.4 109.7L343.9 184.3Z" fill="#373737" stroke="#373737"></path><path d="M421.2 102.3L366.4 105.3L361.4 109.7Z" fill="#3d3d3d" stroke="#3d3d3d"></path><path d="M361.4 109.7L335.2 112.7L343.9 184.3Z" fill="#1e1e1e" stroke="#1e1e1e"></path><path d="M343.9 184.3L251.7 177L320.9 303.3Z" fill="#0a0a0a" stroke="#0a0a0a"></path><path d="M366.4 105.3L335.2 112.7L361.4 109.7Z" fill="#131313" stroke="#131313"></path><path d="M507.6 317.7L552.1 220L466.6 223Z" fill="#3d3d3d" stroke="#3d3d3d"></path><path d="M552.1 220L445.6 90.3L466.6 223Z" fill="#3d3d3d" stroke="#3d3d3d"></path><path d="M421.2 102.3L381.4 0L366.4 105.3Z" fill="#373737" stroke="#373737"></path><path d="M507.6 317.7L541.8 311.3L552.1 220Z" fill="#2a2a2a" stroke="#2a2a2a"></path><path d="M335.2 112.7L268.9 168L343.9 184.3Z" fill="#191919" stroke="#191919"></path><path d="M312.2 325.7L335.9 379L385.4 294.3Z" fill="#131313" stroke="#131313"></path><path d="M507.6 317.7L527.6 361L541.8 311.3Z" fill="#444444" stroke="#444444"></path><path d="M226.7 91.7L251.7 177L268.9 168Z" fill="#444444" stroke="#444444"></path><path d="M268.9 168L251.7 177L343.9 184.3Z" fill="#131313" stroke="#131313"></path><path d="M335.9 379L425.4 407L385.4 294.3Z" fill="#0a0a0a" stroke="#0a0a0a"></path><path d="M425.4 407L527.6 361L507.6 317.7Z" fill="#1e1e1e" stroke="#1e1e1e"></path><path d="M616.1 259.7L585.8 238.7L541.8 311.3Z" fill="#131313" stroke="#131313"></path><path d="M541.8 311.3L585.8 238.7L552.1 220Z" fill="#000000" stroke="#000000"></path><path d="M552.1 220L620.8 73.3L445.6 90.3Z" fill="#242424" stroke="#242424"></path><path d="M312.2 325.7L312.2 396.3L335.9 379Z" fill="#191919" stroke="#191919"></path><path d="M220.9 239.7L250.7 333L320.9 303.3Z" fill="#191919" stroke="#191919"></path><path d="M251.7 177L220.9 239.7L320.9 303.3Z" fill="#191919" stroke="#191919"></path><path d="M250.7 333L312.2 396.3L312.2 325.7Z" fill="#191919" stroke="#191919"></path><path d="M335.9 379L338.9 430.7L425.4 407Z" fill="#444444" stroke="#444444"></path><path d="M584.8 393L559.6 371.3L561.1 506.7Z" fill="#3d3d3d" stroke="#3d3d3d"></path><path d="M527.6 361L559.6 371.3L541.8 311.3Z" fill="#131313" stroke="#131313"></path><path d="M315.2 451.7L338.9 430.7L312.2 396.3Z" fill="#2a2a2a" stroke="#2a2a2a"></path><path d="M312.2 396.3L338.9 430.7L335.9 379Z" fill="#303030" stroke="#303030"></path><path d="M561.1 506.7L559.6 371.3L527.6 361Z" fill="#373737" stroke="#373737"></path><path d="M594.1 339.3L616.1 259.7L541.8 311.3Z" fill="#444444" stroke="#444444"></path><path d="M585.8 238.7L624.8 206L552.1 220Z" fill="#191919" stroke="#191919"></path><path d="M559.6 371.3L594.1 339.3L541.8 311.3Z" fill="#303030" stroke="#303030"></path><path d="M616.1 259.7L624.8 206L585.8 238.7Z" fill="#1e1e1e" stroke="#1e1e1e"></path><path d="M220.9 239.7L201.5 321.3L250.7 333Z" fill="#0a0a0a" stroke="#0a0a0a"></path><path d="M286.2 466L315.2 451.7L312.2 396.3Z" fill="#3d3d3d" stroke="#3d3d3d"></path><path d="M227.9 0L226.7 91.7L335.2 112.7Z" fill="#0a0a0a" stroke="#0a0a0a"></path><path d="M335.2 112.7L226.7 91.7L268.9 168Z" fill="#242424" stroke="#242424"></path><path d="M251.7 177L192.5 147.3L220.9 239.7Z" fill="#131313" stroke="#131313"></path><path d="M220.9 239.7L151.7 209.7L201.5 321.3Z" fill="#3d3d3d" stroke="#3d3d3d"></path><path d="M381.4 0L335.2 112.7L366.4 105.3Z" fill="#0a0a0a" stroke="#0a0a0a"></path><path d="M226.7 91.7L192.5 147.3L251.7 177Z" fill="#1e1e1e" stroke="#1e1e1e"></path><path d="M489.6 3.7L407.2 0L445.6 90.3Z" fill="#1e1e1e" stroke="#1e1e1e"></path><path d="M445.6 90.3L407.2 0L421.2 102.3Z" fill="#191919" stroke="#191919"></path><path d="M407.2 0L381.4 0L421.2 102.3Z" fill="#000000" stroke="#000000"></path><path d="M223.7 403.3L312.2 396.3L250.7 333Z" fill="#131313" stroke="#131313"></path><path d="M342.2 564.3L492.4 522.7L425.4 407Z" fill="#373737" stroke="#373737"></path><path d="M492.4 522.7L527.6 361L425.4 407Z" fill="#3d3d3d" stroke="#3d3d3d"></path><path d="M559.6 371.3L584.8 393L594.1 339.3Z" fill="#303030" stroke="#303030"></path><path d="M682.3 342.3L698.3 262.7L616.1 259.7Z" fill="#242424" stroke="#242424"></path><path d="M531.6 0L489.6 3.7L445.6 90.3Z" fill="#1e1e1e" stroke="#1e1e1e"></path><path d="M195.5 382L223.7 403.3L250.7 333Z" fill="#373737" stroke="#373737"></path><path d="M158.7 0L189.5 102.7L226.7 91.7Z" fill="#303030" stroke="#303030"></path><path d="M226.7 91.7L189.5 102.7L192.5 147.3Z" fill="#373737" stroke="#373737"></path><path d="M192.5 147.3L151.7 209.7L220.9 239.7Z" fill="#303030" stroke="#303030"></path><path d="M145.7 143.3L151.7 209.7L192.5 147.3Z" fill="#000000" stroke="#000000"></path><path d="M201.5 321.3L195.5 382L250.7 333Z" fill="#0a0a0a" stroke="#0a0a0a"></path><path d="M102.2 397.7L195.5 382L201.5 321.3Z" fill="#000000" stroke="#000000"></path><path d="M727.3 116.3L646.3 126L624.8 206Z" fill="#131313" stroke="#131313"></path><path d="M624.8 206L646.3 126L552.1 220Z" fill="#2a2a2a" stroke="#2a2a2a"></path><path d="M199.5 423.7L286.2 466L223.7 403.3Z" fill="#2a2a2a" stroke="#2a2a2a"></path><path d="M223.7 403.3L286.2 466L312.2 396.3Z" fill="#1e1e1e" stroke="#1e1e1e"></path><path d="M342.2 564.3L425.4 407L338.9 430.7Z" fill="#000000" stroke="#000000"></path><path d="M620.8 73.3L531.6 0L445.6 90.3Z" fill="#0a0a0a" stroke="#0a0a0a"></path><path d="M489.6 3.7L553.8 -5.3L407.2 0Z" fill="#444444" stroke="#444444"></path><path d="M646.3 126L620.8 73.3L552.1 220Z" fill="#1e1e1e" stroke="#1e1e1e"></path><path d="M189.5 102.7L145.7 143.3L192.5 147.3Z" fill="#303030" stroke="#303030"></path><path d="M620.8 73.3L562.1 0L531.6 0Z" fill="#242424" stroke="#242424"></path><path d="M562.1 0L553.8 -5.3L531.6 0Z" fill="#373737" stroke="#373737"></path><path d="M531.6 0L553.8 -5.3L489.6 3.7Z" fill="#444444" stroke="#444444"></path><path d="M407.2 0L553.8 -5.3L381.4 0Z" fill="#3d3d3d" stroke="#3d3d3d"></path><path d="M102.2 397.7L199.5 423.7L195.5 382Z" fill="#2a2a2a" stroke="#2a2a2a"></path><path d="M195.5 382L199.5 423.7L223.7 403.3Z" fill="#2a2a2a" stroke="#2a2a2a"></path><path d="M620.8 73.3L575.8 0L562.1 0Z" fill="#242424" stroke="#242424"></path><path d="M562.1 0L575.8 0L553.8 -5.3Z" fill="#2a2a2a" stroke="#2a2a2a"></path><path d="M682.3 342.3L616.1 259.7L594.1 339.3Z" fill="#444444" stroke="#444444"></path><path d="M616.1 259.7L698.3 262.7L624.8 206Z" fill="#444444" stroke="#444444"></path><path d="M584.8 393L682.3 342.3L594.1 339.3Z" fill="#0a0a0a" stroke="#0a0a0a"></path><path d="M381.4 0L227.9 0L335.2 112.7Z" fill="#1e1e1e" stroke="#1e1e1e"></path><path d="M189.5 102.7L92.2 61.7L145.7 143.3Z" fill="#131313" stroke="#131313"></path><path d="M225.9 -2.3L227.9 0L381.4 0Z" fill="#1e1e1e" stroke="#1e1e1e"></path><path d="M727.3 116.3L656.1 70.3L646.3 126Z" fill="#303030" stroke="#303030"></path><path d="M646.3 126L656.1 70.3L620.8 73.3Z" fill="#2a2a2a" stroke="#2a2a2a"></path><path d="M620.8 73.3L621.3 15.7L575.8 0Z" fill="#373737" stroke="#373737"></path><path d="M553.8 -5.3L225.9 -2.3L381.4 0Z" fill="#131313" stroke="#131313"></path><path d="M227.9 0L158.7 0L226.7 91.7Z" fill="#303030" stroke="#303030"></path><path d="M342.2 564.3L338.9 430.7L315.2 451.7Z" fill="#373737" stroke="#373737"></path><path d="M584.8 393L681.1 424L682.3 342.3Z" fill="#444444" stroke="#444444"></path><path d="M656.1 70.3L643.1 45.7L620.8 73.3Z" fill="#0a0a0a" stroke="#0a0a0a"></path><path d="M643.1 45.7L621.3 15.7L620.8 73.3Z" fill="#191919" stroke="#191919"></path><path d="M492.4 522.7L561.1 506.7L527.6 361Z" fill="#131313" stroke="#131313"></path><path d="M682.3 342.3L708.3 329L698.3 262.7Z" fill="#242424" stroke="#242424"></path><path d="M725.5 383L708.3 329L682.3 342.3Z" fill="#000000" stroke="#000000"></path><path d="M145.7 143.3L96.5 193L151.7 209.7Z" fill="#2a2a2a" stroke="#2a2a2a"></path><path d="M151.7 209.7L87.2 276.3L201.5 321.3Z" fill="#191919" stroke="#191919"></path><path d="M92.2 61.7L96.5 193L145.7 143.3Z" fill="#2a2a2a" stroke="#2a2a2a"></path><path d="M752.5 0L622.3 0L643.1 45.7Z" fill="#373737" stroke="#373737"></path><path d="M643.1 45.7L622.3 0L621.3 15.7Z" fill="#000000" stroke="#000000"></path><path d="M621.3 15.7L622.3 0L575.8 0Z" fill="#3d3d3d" stroke="#3d3d3d"></path><path d="M575.8 0L622.3 0L553.8 -5.3Z" fill="#242424" stroke="#242424"></path><path d="M86.2 270.7L87.2 276.3L151.7 209.7Z" fill="#303030" stroke="#303030"></path><path d="M477.4 600L520.6 538.7L492.4 522.7Z" fill="#1e1e1e" stroke="#1e1e1e"></path><path d="M492.4 522.7L520.6 538.7L561.1 506.7Z" fill="#191919" stroke="#191919"></path><path d="M96.5 193L86.2 270.7L151.7 209.7Z" fill="#000000" stroke="#000000"></path><path d="M575.8 556.3L616.8 490.7L561.1 506.7Z" fill="#0a0a0a" stroke="#0a0a0a"></path><path d="M561.1 506.7L616.8 490.7L584.8 393Z" fill="#444444" stroke="#444444"></path><path d="M14.2 255L82.5 293.7L86.2 270.7Z" fill="#373737" stroke="#373737"></path><path d="M86.2 270.7L82.5 293.7L87.2 276.3Z" fill="#000000" stroke="#000000"></path><path d="M87.2 276.3L82.5 293.7L201.5 321.3Z" fill="#1e1e1e" stroke="#1e1e1e"></path><path d="M616.8 490.7L681.1 424L584.8 393Z" fill="#242424" stroke="#242424"></path><path d="M199.5 423.7L214.7 505.3L286.2 466Z" fill="#2a2a2a" stroke="#2a2a2a"></path><path d="M286.2 466L342.2 564.3L315.2 451.7Z" fill="#000000" stroke="#000000"></path><path d="M139.2 480.3L214.7 505.3L199.5 423.7Z" fill="#3d3d3d" stroke="#3d3d3d"></path><path d="M760.8 259.3L741.5 255.7L755.8 324.7Z" fill="#1e1e1e" stroke="#1e1e1e"></path><path d="M708.3 329L741.5 255.7L698.3 262.7Z" fill="#2a2a2a" stroke="#2a2a2a"></path><path d="M698.3 262.7L727.3 116.3L624.8 206Z" fill="#191919" stroke="#191919"></path><path d="M221.7 516.7L342.2 564.3L286.2 466Z" fill="#000000" stroke="#000000"></path><path d="M158.7 600L221.7 516.7L214.7 505.3Z" fill="#2a2a2a" stroke="#2a2a2a"></path><path d="M214.7 505.3L221.7 516.7L286.2 466Z" fill="#3d3d3d" stroke="#3d3d3d"></path><path d="M741.5 255.7L727.3 116.3L698.3 262.7Z" fill="#131313" stroke="#131313"></path><path d="M656.1 70.3L752.5 0L643.1 45.7Z" fill="#191919" stroke="#191919"></path><path d="M225.9 -2.3L158.7 0L227.9 0Z" fill="#444444" stroke="#444444"></path><path d="M82.5 293.7L102.2 397.7L201.5 321.3Z" fill="#191919" stroke="#191919"></path><path d="M522.6 600L544.6 554.3L520.6 538.7Z" fill="#0a0a0a" stroke="#0a0a0a"></path><path d="M520.6 538.7L544.6 554.3L561.1 506.7Z" fill="#1e1e1e" stroke="#1e1e1e"></path><path d="M681.1 424L725.5 383L682.3 342.3Z" fill="#444444" stroke="#444444"></path><path d="M693.5 473.7L725.5 383L681.1 424Z" fill="#3d3d3d" stroke="#3d3d3d"></path><path d="M755.8 324.7L741.5 255.7L708.3 329Z" fill="#1e1e1e" stroke="#1e1e1e"></path><path d="M819.5 157L807.5 130.7L727.3 116.3Z" fill="#0a0a0a" stroke="#0a0a0a"></path><path d="M725.5 383L755.8 324.7L708.3 329Z" fill="#303030" stroke="#303030"></path><path d="M158.7 0L92.2 61.7L189.5 102.7Z" fill="#303030" stroke="#303030"></path><path d="M96.5 193L14.2 255L86.2 270.7Z" fill="#242424" stroke="#242424"></path><path d="M324.9 588.3L357.4 591.3L342.2 564.3Z" fill="#3d3d3d" stroke="#3d3d3d"></path><path d="M342.2 564.3L357.4 591.3L492.4 522.7Z" fill="#373737" stroke="#373737"></path><path d="M544.6 554.3L575.8 556.3L561.1 506.7Z" fill="#0a0a0a" stroke="#0a0a0a"></path><path d="M616.8 490.7L693.5 473.7L681.1 424Z" fill="#242424" stroke="#242424"></path><path d="M522.6 600L575.8 556.3L544.6 554.3Z" fill="#131313" stroke="#131313"></path><path d="M285.9 600L324.9 588.3L342.2 564.3Z" fill="#373737" stroke="#373737"></path><path d="M102.2 397.7L139.2 480.3L199.5 423.7Z" fill="#191919" stroke="#191919"></path><path d="M285.9 600L311.2 600L324.9 588.3Z" fill="#0a0a0a" stroke="#0a0a0a"></path><path d="M672.1 530.3L693.5 473.7L616.8 490.7Z" fill="#303030" stroke="#303030"></path><path d="M788.8 372L784.5 316.3L755.8 324.7Z" fill="#131313" stroke="#131313"></path><path d="M357.4 591.3L477.4 600L492.4 522.7Z" fill="#000000" stroke="#000000"></path><path d="M324.9 588.3L311.2 600L357.4 591.3Z" fill="#242424" stroke="#242424"></path><path d="M357.4 591.3L311.2 600L477.4 600Z" fill="#373737" stroke="#373737"></path><path d="M285.9 600L342.2 564.3L221.7 516.7Z" fill="#2a2a2a" stroke="#2a2a2a"></path><path d="M225.9 -2.3L109.5 0L158.7 0Z" fill="#131313" stroke="#131313"></path><path d="M158.7 0L109.5 0L92.2 61.7Z" fill="#3d3d3d" stroke="#3d3d3d"></path><path d="M477.4 600L522.6 600L520.6 538.7Z" fill="#444444" stroke="#444444"></path><path d="M575.8 556.3L672.1 530.3L616.8 490.7Z" fill="#000000" stroke="#000000"></path><path d="M788.8 372L755.8 324.7L725.5 383Z" fill="#373737" stroke="#373737"></path><path d="M755.8 324.7L784.5 316.3L760.8 259.3Z" fill="#0a0a0a" stroke="#0a0a0a"></path><path d="M819.5 157L727.3 116.3L741.5 255.7Z" fill="#131313" stroke="#131313"></path><path d="M158.7 600L285.9 600L221.7 516.7Z" fill="#444444" stroke="#444444"></path><path d="M0 249L14.2 255L0 215.7Z" fill="#373737" stroke="#373737"></path><path d="M82.5 293.7L0 265.3L102.2 397.7Z" fill="#2a2a2a" stroke="#2a2a2a"></path><path d="M102.2 397.7L70.2 450L139.2 480.3Z" fill="#2a2a2a" stroke="#2a2a2a"></path><path d="M14.2 255L96.5 193L0 215.7Z" fill="#0a0a0a" stroke="#0a0a0a"></path><path d="M637.1 600L672.1 530.3L575.8 556.3Z" fill="#2a2a2a" stroke="#2a2a2a"></path><path d="M693.5 473.7L788.8 372L725.5 383Z" fill="#303030" stroke="#303030"></path><path d="M672.1 530.3L685.3 522.7L693.5 473.7Z" fill="#1e1e1e" stroke="#1e1e1e"></path><path d="M0 462L70.2 450L102.2 397.7Z" fill="#1e1e1e" stroke="#1e1e1e"></path><path d="M139.2 480.3L158.7 600L214.7 505.3Z" fill="#191919" stroke="#191919"></path><path d="M745.5 543.3L788.8 372L693.5 473.7Z" fill="#131313" stroke="#131313"></path><path d="M225.9 -2.3L76.2 0L109.5 0Z" fill="#1e1e1e" stroke="#1e1e1e"></path><path d="M109.5 0L76.2 0L92.2 61.7Z" fill="#131313" stroke="#131313"></path><path d="M0 215.7L96.5 193L-3.8 131.3Z" fill="#3d3d3d" stroke="#3d3d3d"></path><path d="M14.2 255L0 265.3L82.5 293.7Z" fill="#3d3d3d" stroke="#3d3d3d"></path><path d="M-3.8 131.3L96.5 193L92.2 61.7Z" fill="#242424" stroke="#242424"></path><path d="M0 249L0 265.3L14.2 255Z" fill="#1e1e1e" stroke="#1e1e1e"></path><path d="M819.5 157L741.5 255.7L760.8 259.3Z" fill="#0a0a0a" stroke="#0a0a0a"></path><path d="M727.3 116.3L752.5 0L656.1 70.3Z" fill="#242424" stroke="#242424"></path><path d="M819.5 157L760.8 259.3L900 220Z" fill="#303030" stroke="#303030"></path><path d="M672.1 530.3L716.3 532.3L685.3 522.7Z" fill="#191919" stroke="#191919"></path><path d="M522.6 600L605.8 600L575.8 556.3Z" fill="#1e1e1e" stroke="#1e1e1e"></path><path d="M796.8 82.3L752.5 0L727.3 116.3Z" fill="#191919" stroke="#191919"></path><path d="M622.3 0L752.5 0L553.8 -5.3Z" fill="#242424" stroke="#242424"></path><path d="M807.5 130.7L796.8 82.3L727.3 116.3Z" fill="#000000" stroke="#000000"></path><path d="M900 220L760.8 259.3L784.5 316.3Z" fill="#373737" stroke="#373737"></path><path d="M828.5 82.3L800.8 32.7L796.8 82.3Z" fill="#191919" stroke="#191919"></path><path d="M0 87.3L-3.8 131.3L92.2 61.7Z" fill="#3d3d3d" stroke="#3d3d3d"></path><path d="M0 215.7L-3.8 131.3L0 249Z" fill="#1e1e1e" stroke="#1e1e1e"></path><path d="M0 249L-3.8 131.3L0 265.3Z" fill="#191919" stroke="#191919"></path><path d="M637.1 600L716.3 532.3L672.1 530.3Z" fill="#303030" stroke="#303030"></path><path d="M685.3 522.7L716.3 532.3L693.5 473.7Z" fill="#131313" stroke="#131313"></path><path d="M605.8 600L637.1 600L575.8 556.3Z" fill="#191919" stroke="#191919"></path><path d="M0 85.7L0 87.3L92.2 61.7Z" fill="#000000" stroke="#000000"></path><path d="M0 0L0 85.7L92.2 61.7Z" fill="#000000" stroke="#000000"></path><path d="M0 87.3L0 85.7L-3.8 131.3Z" fill="#3d3d3d" stroke="#3d3d3d"></path><path d="M796.8 82.3L800.8 32.7L752.5 0Z" fill="#191919" stroke="#191919"></path><path d="M828.5 82.3L796.8 82.3L807.5 130.7Z" fill="#131313" stroke="#131313"></path><path d="M147.5 600L158.7 600L139.2 480.3Z" fill="#373737" stroke="#373737"></path><path d="M900 127.3L828.5 82.3L807.5 130.7Z" fill="#303030" stroke="#303030"></path><path d="M122.2 600L147.5 600L139.2 480.3Z" fill="#000000" stroke="#000000"></path><path d="M754.3 600L745.5 543.3L716.3 532.3Z" fill="#444444" stroke="#444444"></path><path d="M716.3 532.3L745.5 543.3L693.5 473.7Z" fill="#1e1e1e" stroke="#1e1e1e"></path><path d="M67.5 583.3L139.2 480.3L70.2 450Z" fill="#303030" stroke="#303030"></path><path d="M67.5 583.3L122.2 600L139.2 480.3Z" fill="#0a0a0a" stroke="#0a0a0a"></path><path d="M0 265.3L0 462L102.2 397.7Z" fill="#191919" stroke="#191919"></path><path d="M-3.8 131.3L0 462L0 265.3Z" fill="#191919" stroke="#191919"></path><path d="M225.9 -2.3L0 0L76.2 0Z" fill="#373737" stroke="#373737"></path><path d="M76.2 0L0 0L92.2 61.7Z" fill="#242424" stroke="#242424"></path><path d="M0 85.7L0 0L-3.8 131.3Z" fill="#242424" stroke="#242424"></path><path d="M-3.8 131.3L0 470.3L0 462Z" fill="#3d3d3d" stroke="#3d3d3d"></path><path d="M0 462L0 470.3L70.2 450Z" fill="#2a2a2a" stroke="#2a2a2a"></path><path d="M828.5 82.3L824.8 0L800.8 32.7Z" fill="#191919" stroke="#191919"></path><path d="M800.8 32.7L824.8 0L752.5 0Z" fill="#0a0a0a" stroke="#0a0a0a"></path><path d="M752.5 0L824.8 0L553.8 -5.3Z" fill="#3d3d3d" stroke="#3d3d3d"></path><path d="M0 538.7L67.5 583.3L70.2 450Z" fill="#2a2a2a" stroke="#2a2a2a"></path><path d="M819.5 157L900 127.3L807.5 130.7Z" fill="#303030" stroke="#303030"></path><path d="M828.5 82.3L900 52.7L824.8 0Z" fill="#000000" stroke="#000000"></path><path d="M900 305.3L900 220L784.5 316.3Z" fill="#000000" stroke="#000000"></path><path d="M900 305.3L784.5 316.3L788.8 372Z" fill="#0a0a0a" stroke="#0a0a0a"></path><path d="M900 220L900 203.7L819.5 157Z" fill="#303030" stroke="#303030"></path><path d="M900 203.7L894.8 156L819.5 157Z" fill="#303030" stroke="#303030"></path><path d="M900 432.7L900 305.3L788.8 372Z" fill="#373737" stroke="#373737"></path><path d="M900 203.7L900 127.3L894.8 156Z" fill="#131313" stroke="#131313"></path><path d="M894.8 156L900 127.3L819.5 157Z" fill="#373737" stroke="#373737"></path><path d="M637.1 600L754.3 600L716.3 532.3Z" fill="#373737" stroke="#373737"></path><path d="M900 434L900 432.7L788.8 372Z" fill="#131313" stroke="#131313"></path><path d="M-3.8 131.3L0 538.7L0 470.3Z" fill="#303030" stroke="#303030"></path><path d="M0 470.3L0 538.7L70.2 450Z" fill="#3d3d3d" stroke="#3d3d3d"></path><path d="M900 127.3L900 52.7L828.5 82.3Z" fill="#242424" stroke="#242424"></path><path d="M754.3 600L788.5 600L745.5 543.3Z" fill="#373737" stroke="#373737"></path><path d="M900 434L788.8 372L901.8 478.7Z" fill="#3d3d3d" stroke="#3d3d3d"></path><path d="M901.8 478.7L788.8 372L745.5 543.3Z" fill="#000000" stroke="#000000"></path><path d="M900 52.7L900 0L824.8 0Z" fill="#0a0a0a" stroke="#0a0a0a"></path><path d="M824.8 0L900 0L553.8 -5.3Z" fill="#1e1e1e" stroke="#1e1e1e"></path><path d="M-3.8 131.3L0 600L0 538.7Z" fill="#242424" stroke="#242424"></path><path d="M0 538.7L0 600L67.5 583.3Z" fill="#000000" stroke="#000000"></path><path d="M67.5 583.3L0 600L122.2 600Z" fill="#1e1e1e" stroke="#1e1e1e"></path><path d="M854.8 588.3L901.8 478.7L745.5 543.3Z" fill="#0a0a0a" stroke="#0a0a0a"></path><path d="M900 434L901.8 478.7L900 432.7Z" fill="#242424" stroke="#242424"></path><path d="M900 432.7L901.8 478.7L900 305.3Z" fill="#3d3d3d" stroke="#3d3d3d"></path><path d="M900 305.3L901.8 478.7L900 220Z" fill="#1e1e1e" stroke="#1e1e1e"></path><path d="M900 220L901.8 478.7L900 203.7Z" fill="#303030" stroke="#303030"></path><path d="M900 203.7L901.8 478.7L900 127.3Z" fill="#131313" stroke="#131313"></path><path d="M900 127.3L901.8 478.7L900 52.7Z" fill="#444444" stroke="#444444"></path><path d="M900 52.7L901.8 478.7L900 0Z" fill="#444444" stroke="#444444"></path><path d="M788.5 600L854.8 588.3L745.5 543.3Z" fill="#444444" stroke="#444444"></path><path d="M788.5 600L860.8 600L854.8 588.3Z" fill="#1e1e1e" stroke="#1e1e1e"></path><path d="M854.8 588.3L900 552.3L901.8 478.7Z" fill="#191919" stroke="#191919"></path><path d="M900 600L900 552.3L854.8 588.3Z" fill="#000000" stroke="#000000"></path><path d="M860.8 600L900 600L854.8 588.3Z" fill="#131313" stroke="#131313"></path><path d="M900 552.3L900 600L901.8 478.7Z" fill="#303030" stroke="#303030"></path></g></svg>